# xmcd
#
# Track frame offsets: 
#        182
#        16285
#        32222
#        48072
#
# Disc length: 855 seconds
#
# Revision: 8
# Processed by: cddbd v1.5.2PL0 Copyright (c) Steve Scherf et al.
# Submitted via: ExactAudioCopyFreeDBPlugin 1.0
#
DISCID=25035504
DTITLE=Britney Spears - Oops!...I Did It Again
DYEAR=2000
DGENRE=Pop
TTITLE0=Oops!...I Did It Again (\\\\[Album Version]
TTITLE1=Oops!...I Did It Again [Instrumental]
TTITLE2=From The Bottom Of My Broken Heart [Ospina's Millennium Funk M
TTITLE2=ix]
TTITLE3=Deep In My Heart
EXTD=
EXTT0=
EXTT1=
EXTT2=
EXTT3=
PLAYORDER=
